<svg xmlns="http://www.w3.org/2000/svg" width="31.997" height="32" viewBox="0 0 31.997 32">
  <path id="noun-analysis-4922662" d="M193.777,121.694v4.394a1.3,1.3,0,1,1-2.6,0v-4.394a1.3,1.3,0,1,1,2.6,0Zm-6.49,1.592a1.3,1.3,0,0,0-1.3,1.3v1.5a1.3,1.3,0,1,0,2.6,0v-1.5a1.3,1.3,0,0,0-1.3-1.3Zm10.384-5.78a1.3,1.3,0,0,0-1.3,1.3v7.284a1.3,1.3,0,0,0,2.6,0V118.8a1.3,1.3,0,0,0-1.3-1.3Zm11.056,21.187a1.3,1.3,0,0,1-1.835,0l-4.555-4.556a15.342,15.342,0,1,1,1.836-1.836l4.555,4.556h0a1.3,1.3,0,0,1,0,1.836Zm-16.249-3.537a12.725,12.725,0,1,0-8.983-3.727A12.71,12.71,0,0,0,192.479,135.156Z" transform="translate(-177.112 -107.073)" fill="#fff"/>
</svg>
