<svg xmlns="http://www.w3.org/2000/svg" width="22.857" height="32" viewBox="0 0 22.857 32">
  <g id="Group_812" data-name="Group 812" transform="translate(-468.999 -1474)">
    <path id="Path_425" data-name="Path 425" d="M263.643,315a1.143,1.143,0,0,0-1.143,1.143v4.571a1.143,1.143,0,1,0,2.286,0v-4.571A1.143,1.143,0,0,0,263.643,315Z" transform="translate(212.213 1177.286)" fill="#fff"/>
    <path id="Path_426" data-name="Path 426" d="M197.068,41.629l-4.5-5.394A3.42,3.42,0,0,0,189.934,35h-11.5a3.428,3.428,0,0,0-3.429,3.429V63.571A3.428,3.428,0,0,0,178.434,67h16a3.428,3.428,0,0,0,3.429-3.429V43.827a3.428,3.428,0,0,0-.794-2.2ZM191,37.929l3.274,3.928H191Zm4.571,25.642a1.143,1.143,0,0,1-1.143,1.143h-16a1.143,1.143,0,0,1-1.143-1.143V38.429a1.143,1.143,0,0,1,1.143-1.143h10.286v4.571A2.285,2.285,0,0,0,191,44.143h4.571Z" transform="translate(293.994 1439)" fill="#fff"/>
    <path id="Path_427" data-name="Path 427" d="M333.643,245a1.143,1.143,0,0,0-1.143,1.143v9.143a1.143,1.143,0,1,0,2.286,0v-9.143A1.143,1.143,0,0,0,333.643,245Z" transform="translate(146.785 1242.714)" fill="#fff"/>
    <path id="Path_428" data-name="Path 428" d="M402.5,281.143V288a1.143,1.143,0,1,0,2.286,0v-6.857a1.143,1.143,0,1,0-2.286,0Z" transform="translate(81.356 1210)" fill="#fff"/>
  </g>
</svg>
