<svg xmlns="http://www.w3.org/2000/svg" width="32" height="32" viewBox="0 0 32 32">
  <g id="Group_816" data-name="Group 816" transform="translate(-330.001 -1022)">
    <path id="noun-target-4926145" d="M119.858,37.333a13.726,13.726,0,0,0-12.524,12.524h-1.19a1.143,1.143,0,0,0,0,2.286h1.19a13.726,13.726,0,0,0,12.524,12.524v1.19a1.143,1.143,0,1,0,2.286,0v-1.19a13.726,13.726,0,0,0,12.524-12.524h1.19a1.143,1.143,0,0,0,0-2.286h-1.19a13.726,13.726,0,0,0-12.524-12.524v-1.19a1.143,1.143,0,1,0-2.286,0Zm2.286,2.295v1.087a1.143,1.143,0,1,1-2.286,0V39.628a11.442,11.442,0,0,0-10.23,10.23h1.087a1.143,1.143,0,1,1,0,2.286h-1.087a11.442,11.442,0,0,0,10.23,10.23V61.286a1.143,1.143,0,0,1,2.286,0v1.087a11.442,11.442,0,0,0,10.23-10.23h-1.087a1.143,1.143,0,0,1,0-2.286h1.087A11.442,11.442,0,0,0,122.144,39.628Z" transform="translate(225 987)" fill="#fff" fill-rule="evenodd"/>
    <g id="Ellipse_35" data-name="Ellipse 35" transform="translate(336.676 1028.676)" fill="none" stroke="#fff" stroke-width="3">
      <circle cx="9.5" cy="9.5" r="9.5" stroke="none"/>
      <circle cx="9.5" cy="9.5" r="8" fill="none"/>
    </g>
  </g>
</svg>
