<svg xmlns="http://www.w3.org/2000/svg" width="36" height="36" viewBox="0 0 36 36">
  <g id="noun-carbon-94032" transform="translate(-126.475 -56.473)">
    <g id="Ellipse_61" data-name="Ellipse 61" transform="translate(129.475 59.473)" fill="none" stroke="#000" stroke-width="2">
      <circle cx="15" cy="15" r="15" stroke="none"/>
      <circle cx="15" cy="15" r="14" fill="none"/>
    </g>
    <path id="Path_708" data-name="Path 708" d="M280.091,204.1a6.771,6.771,0,1,1-6.77-6.77,6.771,6.771,0,0,1,6.77,6.77" transform="translate(-128.796 -129.516)"/>
    <path id="Path_709" data-name="Path 709" d="M162.475,74.472a3.153,3.153,0,0,0-2.9-3.142A15.442,15.442,0,0,0,147.624,59.5a3.151,3.151,0,0,0-6.3.023,15.441,15.441,0,0,0-11.846,11.8,3.15,3.15,0,0,0-.05,6.291A15.444,15.444,0,0,0,141.337,89.65a3.154,3.154,0,0,0,6.271.024,15.441,15.441,0,0,0,12.013-12.061,3.154,3.154,0,0,0,2.854-3.139Zm-14.9,14.283a3.153,3.153,0,0,0-6.2-.023,14.534,14.534,0,0,1-11.041-11.187,3.151,3.151,0,0,0,.05-6.132,14.536,14.536,0,0,1,11.042-10.984,3.151,3.151,0,0,0,6.1-.022A14.536,14.536,0,0,1,158.66,71.388a3.154,3.154,0,0,0,.05,6.179,14.54,14.54,0,0,1-11.133,11.189Z"/>
  </g>
</svg>
