<svg xmlns="http://www.w3.org/2000/svg" width="54" height="54.057" viewBox="0 0 54 54.057">
  <g id="noun-compliance-3777335" transform="translate(-84.001 -13.997)">
    <path id="Path_475" data-name="Path 475" d="M224.211,140a14.211,14.211,0,1,0,14.211,14.211A14.216,14.216,0,0,0,224.211,140Zm0,25.011a10.8,10.8,0,1,1,10.8-10.8A10.8,10.8,0,0,1,224.211,165.011Z" transform="translate(-113.21 -113.213)"/>
    <path id="Path_476" data-name="Path 476" d="M296.169,234.65l-5.116,5.116-1.933-1.933a1.728,1.728,0,1,0-2.444,2.444L289.8,243.4a1.733,1.733,0,0,0,1.194.512,1.637,1.637,0,0,0,1.194-.512l6.309-6.309a1.648,1.648,0,0,0,0-2.387,1.542,1.542,0,0,0-2.331-.057Z" transform="translate(-181.644 -197.802)" fill="#00b694"/>
    <path id="Path_477" data-name="Path 477" d="M92.755,25.139H89.97a1.705,1.705,0,0,0,0,3.411h6.878a1.675,1.675,0,0,0,1.705-1.705V19.966a1.705,1.705,0,1,0-3.411,0v2.785L86.9,14.509A1.688,1.688,0,1,0,84.512,16.9Z" transform="translate(0 -0.001)"/>
    <path id="Path_478" data-name="Path 478" d="M486.68,414.288l-8.242-8.242h2.785a1.705,1.705,0,0,0,0-3.411h-6.878a1.675,1.675,0,0,0-1.705,1.705v6.878a1.705,1.705,0,0,0,3.411,0v-2.785l8.242,8.242a1.734,1.734,0,0,0,1.194.511,1.7,1.7,0,0,0,1.193-2.9Z" transform="translate(-349.191 -349.19)"/>
    <path id="Path_479" data-name="Path 479" d="M474.316,28.606h6.878a1.705,1.705,0,0,0,0-3.411h-2.785l8.242-8.3a1.688,1.688,0,0,0-2.387-2.387L476.02,22.75V19.965a1.705,1.705,0,1,0-3.411,0v6.878a1.689,1.689,0,0,0,1.706,1.762Z" transform="translate(-349.161)"/>
    <path id="Path_480" data-name="Path 480" d="M96.847,402.08H89.969a1.705,1.705,0,1,0,0,3.411h2.785l-8.242,8.3a1.716,1.716,0,0,0,0,2.444,1.649,1.649,0,0,0,2.388,0l8.242-8.242v2.728a1.705,1.705,0,1,0,3.411,0v-6.878a1.688,1.688,0,0,0-1.705-1.762Z" transform="translate(0 -348.691)"/>
  </g>
</svg>
