<svg xmlns="http://www.w3.org/2000/svg" width="33.883" height="36" viewBox="0 0 33.883 36">
  <path id="noun-asset-1923555" d="M189.372,79.024l2.446-6.115a2.118,2.118,0,0,0-1.966-2.9H170.7a2.118,2.118,0,0,0-1.966,2.9l2.446,6.115A16.915,16.915,0,0,0,163.332,93.3v4.235h0a8.472,8.472,0,0,0,8.471,8.471h16.941a8.472,8.472,0,0,0,8.471-8.471V93.3a16.915,16.915,0,0,0-7.843-14.275Zm-18.677-6.9h19.156L187.5,78a16.779,16.779,0,0,0-14.458,0Zm24.4,25.412a6.359,6.359,0,0,1-6.353,6.353H171.8a6.359,6.359,0,0,1-6.353-6.353V93.3a14.824,14.824,0,1,1,29.647,0Zm-13.894.151v1.966H179.32V97.719h0a5.709,5.709,0,0,1-3.915-1.661l1.636-1.64h0a4.227,4.227,0,0,0,3.129,1.093c1.494,0,2.293-.564,2.293-1.6a1.431,1.431,0,0,0-.4-1.093,1.924,1.924,0,0,0-1.147-.453l-1.564-.218a4.395,4.395,0,0,1-2.511-1.076,3.422,3.422,0,0,1-.929-2.547,3.782,3.782,0,0,1,3.408-3.831V82.711H181.2v1.935h0a5.249,5.249,0,0,1,3.408,1.458l-1.6,1.583h0a3.6,3.6,0,0,0-2.658-.891c-1.347,0-2,.747-2,1.638a1.254,1.254,0,0,0,.382.927,2.212,2.212,0,0,0,1.2.511l1.529.218a4.316,4.316,0,0,1,2.476,1,3.639,3.639,0,0,1,1,2.747,3.91,3.91,0,0,1-3.737,3.85Z" transform="translate(-163.332 -70.005)"/>
</svg>
