<svg xmlns="http://www.w3.org/2000/svg" width="54" height="50.495" viewBox="0 0 54 50.495">
  <g id="noun-revenue-949180" transform="translate(-153.52 -95.989)">
    <path id="Path_520" data-name="Path 520" d="M303.022,192.491a4.922,4.922,0,0,0-.714-2.036,6.741,6.741,0,0,0-1.874-1.951,10.806,10.806,0,0,0-3.618-1.575l-.845-.223-.768-.192v-5.623a2.352,2.352,0,0,1,1.844.891,3.35,3.35,0,0,1,.768,2.159h4.509a7.141,7.141,0,0,0-.7-2.858,6.3,6.3,0,0,0-1.536-2.021,7.171,7.171,0,0,0-2.213-1.275,11.1,11.1,0,0,0-2.681-.614v-2.451h-1.882v2.451a10.382,10.382,0,0,0-2.758.553,7.563,7.563,0,0,0-2.358,1.306,6.184,6.184,0,0,0-2.251,4.939,5.85,5.85,0,0,0,.538,2.658,5.374,5.374,0,0,0,1.444,1.767,7.614,7.614,0,0,0,2.051,1.145c.768.284,1.536.538,2.3.768.215.046.407.092.592.146h0a3.684,3.684,0,0,1,.423.146v6.637a4.439,4.439,0,0,1-2.443-1.329,3.9,3.9,0,0,1-.937-2.9h-4.486a8.7,8.7,0,0,0,2.3,5.692h0a8.614,8.614,0,0,0,5.562,2.189v2.7h1.882v-2.681a9.9,9.9,0,0,0,3.918-.991,8.315,8.315,0,0,0,2.435-1.813,6.183,6.183,0,0,0,1.605-3.841,16.254,16.254,0,0,0-.115-1.775Zm-9.71-6.4a5.155,5.155,0,0,1-2.189-.922,2.02,2.02,0,0,1-.676-1.644,2.606,2.606,0,0,1,.238-1.16,2.3,2.3,0,0,1,.653-.822,2.822,2.822,0,0,1,.922-.5,3.691,3.691,0,0,1,1.045-.154Zm4.993,9.365h0a3.386,3.386,0,0,1-.768.937,3.75,3.75,0,0,1-1.114.584,5.562,5.562,0,0,1-1.191.268v-6.122a7.693,7.693,0,0,1,2.612,1.113,2.221,2.221,0,0,1,.768,1.859,2.608,2.608,0,0,1-.307,1.336Z" transform="translate(-113.816 -67.934)" fill="#00b694"/>
    <path id="Path_521" data-name="Path 521" d="M294.525,133.753l-5.262,1.206h0a1.288,1.288,0,0,1-.346,0,1.513,1.513,0,0,1-1.49-1.191l-1.206-5.262a1.537,1.537,0,0,1,3-.691l.307,1.329h0a22.193,22.193,0,0,0-32.088-26.956l-1.575-2.635a25.258,25.258,0,0,1,36.159,31.626l1.821-.415h0a1.536,1.536,0,1,1,.684,2.988Z" transform="translate(-88.303)"/>
    <path id="Path_522" data-name="Path 522" d="M193.24,215.068a25.258,25.258,0,0,1-35.936-31.8l-1.9.438h0a1.536,1.536,0,0,1-.684-3l5.262-1.206h0a1.533,1.533,0,0,1,1.16.192,1.573,1.573,0,0,1,.684.96l1.206,5.27a1.537,1.537,0,0,1-1.16,1.836,1.333,1.333,0,0,1-.346,0,1.536,1.536,0,0,1-1.49-1.191l-.3-1.16a22.185,22.185,0,0,0,31.957,27Z" transform="translate(0 -72.028)"/>
  </g>
</svg>
