<svg xmlns="http://www.w3.org/2000/svg" width="54" height="54.024" viewBox="0 0 54 54.024">
  <g id="noun-capital-2878964" transform="translate(-202.5 -132.5)">
    <path id="Path_639" data-name="Path 639" d="M338.769,162.237A14.869,14.869,0,1,0,323.9,147.369,14.879,14.879,0,0,0,338.769,162.237Zm0-26.991h0a12.131,12.131,0,1,1-12.14,12.122A12.156,12.156,0,0,1,338.769,135.247Z" transform="translate(-99.17)"/>
    <path id="Path_640" data-name="Path 640" d="M377.176,175.156a1.633,1.633,0,0,1-1.63-1.63,1.373,1.373,0,1,0-2.747,0,4.376,4.376,0,0,0,4.358,4.358h.165v.092a1.373,1.373,0,0,0,2.747,0v-.092h.092a4.376,4.376,0,0,0,4.358-4.358v-1.117a4.376,4.376,0,0,0-4.358-4.358h-.092v-4.358h.092a1.633,1.633,0,0,1,1.63,1.63,1.373,1.373,0,1,0,2.747,0,4.376,4.376,0,0,0-4.358-4.358h-.092v-.092a1.373,1.373,0,1,0-2.747,0v.092h-.165a4.376,4.376,0,0,0-4.358,4.358v1.117a4.376,4.376,0,0,0,4.358,4.358h.165v4.358Zm2.893-4.358h.092a1.633,1.633,0,0,1,1.63,1.63v1.117a1.633,1.633,0,0,1-1.63,1.63h-.092Zm-2.893-2.728a1.633,1.633,0,0,1-1.63-1.63v-1.117a1.633,1.633,0,0,1,1.63-1.63h.165v4.358Z" transform="translate(-139.116 -22.056)" fill="#00b694"/>
    <path id="Path_641" data-name="Path 641" d="M211.467,363.859h0a1.372,1.372,0,0,0,.531-2.637A1.358,1.358,0,0,0,210.222,363,1.288,1.288,0,0,0,211.467,363.859Z" transform="translate(-6.22 -186.753)"/>
    <path id="Path_642" data-name="Path 642" d="M255.346,293.333h0a3.06,3.06,0,0,0-2.618-.586L236.3,296.482a3.1,3.1,0,0,0-.6-1.776,3.148,3.148,0,0,0-1.52-1.1l-13.4-4.358a1.7,1.7,0,0,0-.421-.073h-9.577a3.986,3.986,0,0,0-1.373-2.216,3.855,3.855,0,0,0-2.454-.861h-3.076a1.373,1.373,0,1,0,0,2.747h3.076a1.188,1.188,0,0,1,1.19,1.19V302.6a1.188,1.188,0,0,1-1.19,1.19h-3.076a1.373,1.373,0,1,0,0,2.747h3.076a3.962,3.962,0,0,0,2.454-.861,3.889,3.889,0,0,0,1.373-2.216h3.735l18.787,8.423a1.381,1.381,0,0,0,1.282-.092l20.453-12.525a3.079,3.079,0,0,0,1.465-2.618v-.9A3.019,3.019,0,0,0,255.346,293.333Zm-1.575,3.314a.311.311,0,0,1-.165.293l-19.849,12.14-18.4-8.258a1.51,1.51,0,0,0-.568-.128H210.85v-8.808h9.265l13.2,4.285a.333.333,0,0,1,.2.183.359.359,0,0,1,.018.275l-.348.989a.933.933,0,0,0-.128.311.323.323,0,0,1-.348.11l-8.972-2.637h0a1.346,1.346,0,0,0-1.062.091,1.38,1.38,0,0,0-.678.824,1.366,1.366,0,0,0,.971,1.7l8.972,2.655a3.036,3.036,0,0,0,1.849-.037,3.186,3.186,0,0,0,1.5-1.1l18.055-4.12h.018a.344.344,0,0,1,.293.073.39.39,0,0,1,.128.275Z" transform="translate(0 -125.474)"/>
  </g>
</svg>
