<svg xmlns="http://www.w3.org/2000/svg" width="24.057" height="24" viewBox="0 0 24.057 24">
  <path id="Path_669" data-name="Path 669" d="M3007.42,184h-16.267a3.9,3.9,0,0,1-3.9-3.887V163.887a3.9,3.9,0,0,1,3.9-3.887h16.267a3.9,3.9,0,0,1,3.895,3.887v16.226A3.9,3.9,0,0,1,3007.42,184Zm-12.033-4.159h0V169.489h-3.22v10.352Zm-1.607-11.766a1.864,1.864,0,1,0-1.864-1.864A1.862,1.862,0,0,0,2993.78,168.075Zm13.659,11.766v-5.675c0-2.789-.605-4.934-3.859-4.934a3.386,3.386,0,0,0-3.045,1.671h-.043v-1.414h-3.084v10.352h3.215v-5.123c0-1.351.256-2.658,1.932-2.658,1.646,0,1.671,1.545,1.671,2.745v5.036Z" transform="translate(-2987.258 -160)" fill="#fff"/>
</svg>
