<svg xmlns="http://www.w3.org/2000/svg" width="36" height="33.429" viewBox="0 0 36 33.429">
  <path id="noun-server-4859167" d="M116.571,52.5a1.286,1.286,0,0,0-1.286,1.286V64.071a1.286,1.286,0,0,0,1.286,1.286h5.143v3.857H110.143a1.286,1.286,0,0,0-1.286,1.286v5.143h-2.571A1.286,1.286,0,0,0,105,76.929v7.714a1.286,1.286,0,0,0,1.286,1.286H114a1.286,1.286,0,0,0,1.286-1.286V76.929A1.286,1.286,0,0,0,114,75.643h-2.571V71.786h10.286v3.857h-2.571a1.286,1.286,0,0,0-1.286,1.286v7.714a1.286,1.286,0,0,0,1.286,1.286h7.714a1.286,1.286,0,0,0,1.286-1.286V76.929a1.286,1.286,0,0,0-1.286-1.286h-2.571V71.786h10.286v3.857H132a1.286,1.286,0,0,0-1.286,1.286v7.714A1.286,1.286,0,0,0,132,85.929h7.714A1.286,1.286,0,0,0,141,84.643V76.929a1.286,1.286,0,0,0-1.286-1.286h-2.571V70.5a1.286,1.286,0,0,0-1.286-1.286H124.286V65.357h5.143a1.286,1.286,0,0,0,1.286-1.286V53.786a1.286,1.286,0,0,0-1.286-1.286Zm11.571,7.714H117.857v2.571h10.286Zm0-2.571V55.071H117.857v2.571ZM107.571,78.214v5.143h5.143V78.214Zm12.857,0v5.143h5.143V78.214Zm12.857,0v5.143h5.143V78.214Z" transform="translate(-105 -52.5)" fill-rule="evenodd"/>
</svg>
