<svg xmlns="http://www.w3.org/2000/svg" width="30.061" height="32" viewBox="0 0 30.061 32">
  <g id="noun-offset-694929" transform="translate(-86.97)">
    <path id="Path_429" data-name="Path 429" d="M163.9,123.436a10.665,10.665,0,0,0,19.976-5.2,10.572,10.572,0,0,0-2.1-6.335,12.564,12.564,0,0,0-5.042-1.034A12.811,12.811,0,0,0,163.9,123.436Z" transform="translate(-72.532 -104.527)" fill="#fff"/>
    <path id="Path_430" data-name="Path 430" d="M235.142,234.749v.291a15.015,15.015,0,0,1-21.462,13.544,12.843,12.843,0,0,0,21.463-13.835Z" transform="translate(-119.47 -221.335)" fill="#fff"/>
    <path id="Path_431" data-name="Path 431" d="M100.675,27.41a13.7,13.7,0,1,1,13.7-13.7A13.733,13.733,0,0,1,100.675,27.41Zm0-25.664A11.959,11.959,0,1,0,112.634,13.7,11.974,11.974,0,0,0,100.675,1.746Z" fill="#fff"/>
  </g>
</svg>
