<svg xmlns="http://www.w3.org/2000/svg" width="54" height="41.302" viewBox="0 0 54 41.302">
  <g id="noun-shareholder-2470132" transform="translate(-83.857 -76.715)">
    <path id="Path_562" data-name="Path 562" d="M93.472,394.8H89.893a5.69,5.69,0,0,0-5.624,4.886l-.4,2.784a1.182,1.182,0,0,0,1.193,1.364H98.3a1.182,1.182,0,0,0,1.193-1.364l-.4-2.727a5.691,5.691,0,0,0-5.624-4.942Z" transform="translate(0 -285.816)"/>
    <path id="Path_563" data-name="Path 563" d="M120.661,284.612a5.17,5.17,0,1,1-5.169-5.169,5.17,5.17,0,0,1,5.169,5.169" transform="translate(-23.78 -182.162)"/>
    <path id="Path_564" data-name="Path 564" d="M282.752,394.8h-3.579a5.69,5.69,0,0,0-5.624,4.886l-.4,2.784a1.182,1.182,0,0,0,1.193,1.364h13.237a1.182,1.182,0,0,0,1.193-1.364l-.4-2.727a5.691,5.691,0,0,0-5.624-4.942Z" transform="translate(-170.078 -285.816)"/>
    <path id="Path_565" data-name="Path 565" d="M309.378,284.612a5.17,5.17,0,1,1-5.17-5.169,5.17,5.17,0,0,1,5.17,5.169" transform="translate(-193.352 -182.162)"/>
    <path id="Path_566" data-name="Path 566" d="M477.1,400.246a5.69,5.69,0,0,0-5.624-4.886H467.9a5.69,5.69,0,0,0-5.624,4.886l-.4,2.727a1.182,1.182,0,0,0,1.193,1.364H476.3a1.182,1.182,0,0,0,1.193-1.364Z" transform="translate(-339.655 -286.32)"/>
    <path id="Path_567" data-name="Path 567" d="M498.1,284.612a5.17,5.17,0,1,1-5.17-5.169,5.17,5.17,0,0,1,5.17,5.169" transform="translate(-362.93 -182.162)"/>
    <path id="Path_568" data-name="Path 568" d="M308.663,86.884h1.08a1.421,1.421,0,0,1,1.022.455,1.2,1.2,0,0,1,.341,1.022,1.373,1.373,0,0,1-1.42,1.193h-1.42a.9.9,0,0,1-.852-.682.612.612,0,0,0-.568-.455h-1.7a.586.586,0,0,0-.625.625,3.623,3.623,0,0,0,3.125,3.238v1.364a.57.57,0,0,0,.568.568H309.8a.57.57,0,0,0,.568-.568v-1.42a4.217,4.217,0,0,0,3.352-3.636,4.058,4.058,0,0,0-1.08-3.181,4.172,4.172,0,0,0-3.068-1.364h-1.25a1.421,1.421,0,0,1-1.022-.455,1.2,1.2,0,0,1-.341-1.022,1.373,1.373,0,0,1,1.42-1.193h1.42a.9.9,0,0,1,.852.682.553.553,0,0,0,.568.455h1.874a.586.586,0,0,0,.625-.625,3.623,3.623,0,0,0-3.125-3.238V77.283a.57.57,0,0,0-.568-.568h-1.591a.57.57,0,0,0-.568.568V78.7a4.178,4.178,0,0,0-3.352,4.488,4.061,4.061,0,0,0,4.148,3.693Z" transform="translate(-198.261)" fill="#00b694"/>
    <path id="Path_569" data-name="Path 569" d="M163.1,152.9a1.139,1.139,0,0,0-1.136-1.136h-8.578a3.867,3.867,0,0,0-3.863,3.863v5.113a1.136,1.136,0,0,0,2.272,0v-5.113a1.541,1.541,0,0,1,1.591-1.534h8.578A1.229,1.229,0,0,0,163.1,152.9Z" transform="translate(-59.005 -67.433)"/>
    <path id="Path_570" data-name="Path 570" d="M427.889,155.625v5.113a1.136,1.136,0,1,0,2.272,0v-5.113a3.867,3.867,0,0,0-3.863-3.863h-8.522a1.136,1.136,0,1,0,0,2.272h8.578A1.577,1.577,0,0,1,427.889,155.625Z" transform="translate(-299.024 -67.434)"/>
  </g>
</svg>
