<svg xmlns="http://www.w3.org/2000/svg" width="36" height="42" viewBox="0 0 36 42">
  <g id="noun-risk-4605531" transform="translate(-140.004 -34.994)">
    <path id="Path_717" data-name="Path 717" d="M175.125,42.629l-16.5-7.5a1.494,1.494,0,0,0-1.242,0l-16.5,7.5A1.5,1.5,0,0,0,140,43.994V48.23a30.345,30.345,0,0,0,11.049,23.463l5.994,4.957a1.5,1.5,0,0,0,1.912,0l6-4.956A30.351,30.351,0,0,0,176,48.23V43.994a1.5,1.5,0,0,0-.879-1.365ZM173,48.23a27.358,27.358,0,0,1-9.96,21.152L158,73.549l-5.038-4.167A27.353,27.353,0,0,1,143,48.23V44.96l15-6.818,15,6.818Z"/>
    <path id="Path_718" data-name="Path 718" d="M297.847,140.553a1.5,1.5,0,0,0-.31,1.245l3,15a1.5,1.5,0,0,0,2.94,0l3-15a1.5,1.5,0,0,0-1.47-1.794h-6A1.5,1.5,0,0,0,297.847,140.553ZM303.176,143l-1.17,5.851L300.837,143Z" transform="translate(-144.003 -96.009)"/>
    <path id="Path_719" data-name="Path 719" d="M321,370.5a3,3,0,1,1-3-3,3,3,0,0,1,3,3" transform="translate(-159.996 -304.006)"/>
  </g>
</svg>
